<?xml version="1.0" encoding="UTF-8" standalone="no"?>
<svg
   xmlns:dc="http://purl.org/dc/elements/1.1/"
   xmlns:cc="http://creativecommons.org/ns#"
   xmlns:rdf="http://www.w3.org/1999/02/22-rdf-syntax-ns#"
   xmlns:svg="http://www.w3.org/2000/svg"
   xmlns="http://www.w3.org/2000/svg"
   version="1.1"
   width="16"
   viewBox="0 0 16 16"
   height="16"
   enable-background="new 0 0 512.007 512.007"
   id="Capa_1">
  <metadata
     id="metadata11">
    <rdf:RDF>
      <cc:Work
         rdf:about="">
        <dc:format>image/svg+xml</dc:format>
        <dc:type
           rdf:resource="http://purl.org/dc/dcmitype/StillImage" />
        <dc:title></dc:title>
      </cc:Work>
    </rdf:RDF>
  </metadata>
  <defs
     id="defs9" />
  <g
     style="stroke:none;stroke-width:36.28887177;stroke-miterlimit:4;stroke-dasharray:none"
     id="g4"
     transform="matrix(0.02997853,0,0,0.03001595,0.31800982,0.3133205)">
    <path
       id="path2"
       d="M 44.998663,0.0039063 C 16.970015,-0.8981175 -3.9236961,27.01077 -0.00195315,53.691566 0.15297127,192.99139 -0.3119744,332.30691 0.23082109,471.59692 2.1491228,498.62331 29.724577,515.61756 55.135825,512.0031 c 138.817115,-0.15492 277.649905,0.31002 416.457195,-0.23277 30.1938,-2.12772 45.25769,-34.41496 40.40625,-61.55569 -0.0506,-107.89236 0.11436,-215.78661 -0.0723,-323.67775 C 501.35115,105.18619 478.80092,91.34522 463.31954,73.102558 438.46827,49.490364 415.68183,23.210956 389.65126,1.1191004 360.94061,-1.3803683 331.78564,0.67213998 302.89625,0.0039063 Z m 0.002,29.9984577 h 97.999387 c 0.53387,35.671601 -1.11585,71.482056 0.9159,107.058926 4.34825,25.00854 30.39655,39.0613 54.22188,35.94108 60.81739,-0.15289 41.6492,0.30728 102.45678,-0.23275 27.02603,-1.91753 44.01871,-29.49279 40.40426,-54.90308 V 30.002364 c 4.14159,1.028619 33.01728,-2.077935 36.16263,1.355816 37.15064,33.689392 74.07954,72.09874 104.83929,102.8585 -0.20328,111.92989 0.40674,223.9008 -0.3053,335.80503 -5.41233,17.65501 -25.63128,10.50321 -39.31372,11.98098 H 416.9999 c -0.15405,-61.5297 0.30885,-69.07428 -0.23276,-130.59418 -1.91752,-27.02603 -29.49278,-44.0187 -54.90307,-40.40425 -60.81739,0.15289 -163.65086,-0.30728 -224.45846,0.23275 -27.02608,1.91753 -44.020891,29.49207 -40.406187,54.90308 v 115.8626 c -19.241068,-0.66978 -38.833096,1.41212 -57.831869,-1.18067 -14.569782,-8.16144 -7.477995,-26.34986 -9.167096,-39.88652 0.203551,-132.97892 -0.407091,-265.99889 0.3053,-398.952152 1.273475,-6.807233 7.799763,-12.103441 14.694905,-11.980984 z m 127.999807,0 h 137.99994 c -0.20161,33.668486 0.4045,67.377705 -0.30531,101.020556 -5.41348,17.51683 -25.63007,10.64808 -39.31025,12.39474 -55.45779,0.50896 -30.96907,0.0154 -86.40337,-0.73183 -17.65513,-5.413 -10.50354,-25.62104 -11.98101,-39.30094 z M 142,341.00467 c 63.66819,0.20267 169.37785,-0.40587 233.0204,0.30522 17.64921,5.51132 10.53395,25.6954 11.98099,39.48596 v 101.20684 h -260.0016 c 0.20702,-61.00123 -0.41214,-68.0434 0.3053,-129.0189 1.27344,-6.80712 7.80034,-12.10168 14.69491,-11.97912 z"
       style="stroke:#000000;stroke-width:20.24604607;stroke-miterlimit:4;stroke-dasharray:none" />
  </g>
</svg>
